
<svg width="10" height="11" viewBox="0 0 10 11" fill="none" xmlns="http://www.w3.org/2000/svg">
<path d="M9.97357 4.02313C9.94214 3.92795 9.8843 3.84432 9.80717 3.78256C9.73004 3.7208 9.63701 3.68362 9.53957 3.6756L6.68905 3.44271L5.45555 0.635235C5.41626 0.544812 5.35237 0.468011 5.27157 0.4141C5.19077 0.36019 5.09652 0.331475 5.0002 0.331421C4.90389 0.331367 4.80961 0.359975 4.72875 0.413794C4.6479 0.467613 4.58392 0.544342 4.54454 0.634721L3.31103 3.44271L0.460516 3.6756C0.364743 3.6834 0.273184 3.71941 0.196792 3.77931C0.1204 3.83921 0.06241 3.92047 0.0297599 4.01338C-0.00289021 4.10628 -0.00881802 4.20688 0.0126857 4.30316C0.0341894 4.39943 0.082214 4.4873 0.151014 4.55625L2.25753 6.66764L1.51252 9.98459C1.4899 10.085 1.49715 10.1901 1.53333 10.2862C1.56951 10.3823 1.63295 10.465 1.71542 10.5236C1.79789 10.5822 1.89558 10.6139 1.99582 10.6147C2.09605 10.6155 2.1942 10.5853 2.27753 10.528L5.00004 8.66182L7.72256 10.528C7.80773 10.5861 7.90817 10.6161 8.01038 10.6138C8.11258 10.6115 8.21165 10.577 8.29426 10.5151C8.37687 10.4532 8.43905 10.3667 8.47245 10.2674C8.50584 10.168 8.50885 10.0606 8.48106 9.9594L7.56656 6.66918L9.83457 4.57064C9.98307 4.43286 10.0376 4.21797 9.97357 4.02313Z" fill="#DEBC36"/>
</svg>
